<?xml version="1.0" standalone="no"?>
<!DOCTYPE svg PUBLIC "-//W3C//DTD SVG 20010904//EN"
 "http://www.w3.org/TR/2001/REC-SVG-20010904/DTD/svg10.dtd">
<svg version="1.0" xmlns="http://www.w3.org/2000/svg"
 width="260.000000pt" height="260.000000pt" viewBox="0 0 260.000000 260.000000"
 preserveAspectRatio="xMidYMid meet">
<metadata>
Created by potrace 1.11, written by Peter Selinger 2001-2013
</metadata>
<g transform="translate(0.000000,260.000000) scale(0.100000,-0.100000)"
fill="#000000" stroke="none">
<path d="M232 2548 c-17 -22 -21 -50 -27 -193 -3 -77 -8 -184 -11 -239 -4 -78
-2 -103 11 -122 20 -31 53 -31 88 2 19 18 29 21 32 12 8 -25 224 -606 335
-903 317 -850 317 -850 334 -849 10 1 16 -6 16 -17 0 -18 22 -19 760 -19 l760
0 0 36 c0 21 7 42 15 48 14 11 11 23 -60 181 -33 74 -130 296 -205 470 -46
105 -91 208 -100 230 -183 410 -342 784 -339 800 9 67 -7 504 -21 540 -5 14
-21 27 -36 31 -25 6 -38 -4 -148 -120 l-121 -127 -496 1 -496 0 -119 125
c-118 123 -147 143 -172 113z m1180 -351 c-12 -13 -22 -33 -22 -45 0 -26 36
-52 73 -52 25 0 28 -3 22 -22 -3 -13 -10 -32 -16 -43 -5 -11 -48 -123 -95
-250 -47 -126 -96 -257 -109 -290 -13 -33 -55 -145 -95 -250 -39 -104 -75
-199 -80 -210 -5 -11 -21 -55 -37 -97 -15 -43 -31 -74 -35 -70 -6 6 -205 539
-354 947 -31 83 -59 159 -65 170 -9 21 -39 105 -39 111 0 2 10 4 23 4 32 0 67
27 67 52 0 12 -10 32 -22 45 l-21 23 413 0 413 0 -21 -23z m366 -317 c176
-406 445 -1024 478 -1095 12 -26 187 -430 201 -462 4 -10 -136 -13 -681 -13
-377 0 -686 2 -686 5 0 6 224 606 239 640 9 21 88 229 190 501 33 89 65 172
70 185 5 13 38 99 72 192 34 92 63 166 65 165 1 -2 25 -55 52 -118z"/>
</g>
</svg>
